<?xml version="1.0" standalone="no"?> <!DOCTYPE svg PUBLIC "-//W3C//DTD SVG 1.0//EN" "http://www.w3.org/TR/2001/REC-SVG-20010904/DTD/svg10.dtd" > <svg xmlns="http://www.w3.org/2000/svg" width="100%" height="100%">
<defs >
<font horiz-adv-x="1417" ><font-face
    font-family="A-Space Demo"
    units-per-em="2048"
    panose-1="2 0 5 0 0 0 0 0 0 0"
    ascent="1856"
    descent="-446"
    alphabetic="0" />
<missing-glyph horiz-adv-x="260" />
<glyph unicode=" " glyph-name="space" horiz-adv-x="700" />
<glyph unicode="!" glyph-name="exclam" horiz-adv-x="540" d="M140 1416H399V441H140V1416ZM140 210H400V0H140V210Z" />
<glyph unicode="&quot;" glyph-name="quotedbl" horiz-adv-x="809" d="M130 1414H329V1164L299 974H160L130 1164V1414ZM470 1414H679V1164L649 974H500L470 1164V1414Z" />
<glyph unicode="#" glyph-name="numbersign" horiz-adv-x="1830" d="M1330 851L1269 582H1692V423H1233L1136 0L982 35L1070 423H654L558 0L403 35L491 423H132V582H527L588 851H130V1010H624L724 1447L879 1412L787 1010H1203L1303 1447L1457 1412L1366 1010H1700V851H1330ZM1106
582L1167 851H751L690 582H1106Z" />
<glyph unicode="$" glyph-name="dollar" horiz-adv-x="1704" d="M1307 811Q1418 811 1496 732Q1574 654 1574 544V267Q1574 157 1496 79Q1418 1 1307 1H981V-144H722V1H160V159H722V652H386Q280 652 205 727Q130 802 130 908V1158Q130 1264 205 1340Q280 1415
386 1415H722V1560H981V1415H1474V1256H981V811H1307ZM722 811V1256H486Q446 1256 417 1227Q388 1199 388 1158V908Q388 868 417 839Q446 811 486 811H722ZM1315 544Q1315 589 1284 620Q1252 652 1207 652H981V159H1207Q1252 159 1284 191Q1315 223 1315 267V544Z"
/>
<glyph unicode="%" glyph-name="percent" horiz-adv-x="2258" d="M693 1465Q827 1465 923 1393Q1021 1320 1021 1213V933Q1021 828 923 754Q827 682 693 682H429Q295 682 198 754Q100 828 100 933V1213Q100 1320 198 1393Q295 1465 429 1465H693ZM820 1213Q820
1265 771 1303Q718 1342 643 1342H479Q403 1342 351 1303Q301 1265 301 1213V933Q301 882 351 845Q403 805 479 805H643Q718 805 771 845Q820 882 820 933V1213ZM491 -61L1576 1464H1787L702 -61H491ZM1830 733Q1964 733 2060 661Q2158 587 2158 481V201Q2158 95
2060 22Q1964 -50 1830 -50H1566Q1432 -50 1335 22Q1237 95 1237 201V481Q1237 587 1335 661Q1432 733 1566 733H1830ZM1957 481Q1957 533 1908 570Q1855 610 1780 610H1616Q1540 610 1488 570Q1438 533 1438 481V201Q1438 150 1488 112Q1540 73 1616 73H1780Q1855
73 1908 112Q1957 150 1957 201V481Z" />
<glyph unicode="&amp;" glyph-name="ampersand" horiz-adv-x="1767" d="M1637 811V652H1487Q1507 605 1507 554V256Q1507 150 1432 75Q1356 0 1250 0H386Q280 0 205 75Q130 150 130 256V554Q130 657 201 732Q130 806 130 909V1159Q130 1265 205 1340Q280 1415
386 1415H1195V1257H486Q446 1257 417 1228Q389 1199 389 1159V909Q389 868 417 840Q446 811 486 811H1637ZM1248 554Q1248 595 1219 623Q1191 652 1150 652H486Q446 652 417 623Q389 595 389 554V256Q389 216 417 187Q446 158 486 158H1150Q1191 158 1219 187Q1248
216 1248 256V554Z" />
<glyph unicode="&apos;" glyph-name="quotesingle" horiz-adv-x="469" d="M130 1414H339V1164L309 974H160L130 1164V1414Z" />
<glyph unicode="(" glyph-name="parenleft" horiz-adv-x="701" d="M130 1053Q130 1203 236 1309Q342 1415 492 1415H571V1257H552Q468 1257 408 1197Q348 1137 348 1053V-38Q348 -122 408 -182Q468 -242 552 -242H571V-400H492Q342 -400 236 -294Q130 -188 130 -38V1053Z" />
<glyph unicode=")" glyph-name="parenright" horiz-adv-x="701" d="M571 -38Q571 -188 465 -294Q359 -400 209 -400H130V-242H149Q233 -242 293 -182Q353 -122 353 -38V1053Q353 1137 293 1197Q233 1257 149 1257H130V1415H209Q359 1415 465 1309Q571 1203 571 1053V-38Z" />
<glyph unicode="*" glyph-name="asterisk" horiz-adv-x="1003" d="M829 1258L873 1105L639 1038L782 863L660 763L502 956L344 763L221 863L364 1038L130 1105L174 1258L422 1186V1415H581V1186L829 1258Z" />
<glyph unicode="+" glyph-name="plus" horiz-adv-x="1352" d="M806 792H1222V613H806V210H547V613H130V792H547V1196H806V792Z" />
<glyph unicode="," glyph-name="comma" horiz-adv-x="530" d="M270 0H130V210H400V-190H290Q290 -80 270 0Z" />
<glyph unicode="-" glyph-name="hyphen" horiz-adv-x="1051" d="M130 819H921V610H130V819Z" />
<glyph unicode="." glyph-name="period" horiz-adv-x="520" d="M130 210H390V0H130V210Z" />
<glyph unicode="/" glyph-name="slash" horiz-adv-x="791" d="M10 -40L588 1415H781L204 -40H10Z" />
<glyph unicode="0" glyph-name="zero" horiz-adv-x="1662" d="M1091 1415Q1274 1415 1403 1286Q1532 1157 1532 974V440Q1532 258 1403 129Q1274 0 1091 0H571Q389 0 259 129Q130 258 130 440V974Q130 1157 259 1286Q389 1415 571 1415H1091ZM1273 924Q1273 1041
1191 1124Q1108 1207 991 1207H671Q554 1207 471 1124Q389 1041 389 924V490Q389 374 471 291Q554 208 671 208H991Q1108 208 1191 291Q1273 374 1273 490V924Z" />
<glyph unicode="1" glyph-name="one" horiz-adv-x="826" d="M696 1376T696 1290V0H437V1077L167 725L10 880L374 1368Q398 1400 437 1411Q453 1416 470 1416Q593 1416 616 1407Q696 1376 696 1290Z" />
<glyph unicode="2" glyph-name="two" horiz-adv-x="1705" d="M389 208L1575 209V0H130V594Q130 704 208 782Q286 861 397 861H1218Q1259 861 1287 889Q1316 918 1316 958V1109Q1316 1149 1287 1178Q1259 1207 1218 1207H165V1415H1318Q1424 1415 1499 1340Q1575
1265 1575 1159V908Q1575 802 1499 727Q1424 652 1318 652H497Q452 652 420 620Q389 588 389 544V208Z" />
<glyph unicode="3" glyph-name="three" horiz-adv-x="1570" d="M1183 1415Q1289 1415 1365 1340Q1440 1265 1440 1159V909Q1440 806 1368 731Q1440 657 1440 554V256Q1440 150 1365 75Q1289 0 1183 0H130V208H1083Q1124 208 1152 237Q1181 266 1181 306V534Q1181
575 1152 603Q1124 632 1083 632H183V841H1083Q1124 841 1152 869Q1181 898 1181 939V1109Q1181 1149 1152 1178Q1124 1207 1083 1207H130V1415H1183Z" />
<glyph unicode="4" glyph-name="four" horiz-adv-x="1819" d="M1489 525H1789V316H1489V0H1230V316H155Q68 316 38 397Q30 419 30 442Q30 459 35 477Q47 516 80 539L1289 1390Q1326 1416 1364 1416Q1390 1416 1416 1404Q1489 1370 1489 1291V525ZM1236 1096L430
533H1236V1096Z" />
<glyph unicode="5" glyph-name="five" horiz-adv-x="1705" d="M1575 1207H389V841H1318Q1424 841 1500 766Q1575 691 1575 585V256Q1575 150 1500 75Q1424 0 1318 0H130V208H1218Q1259 208 1287 237Q1316 266 1316 306V535Q1316 575 1287 604Q1259 632 1218 632H130V1415H1575V1207Z"
/>
<glyph unicode="6" glyph-name="six" horiz-adv-x="1570" d="M130 1159Q130 1265 206 1340Q281 1415 387 1415H1350V1207H487Q446 1207 418 1178Q389 1149 389 1109V831H1183Q1289 831 1365 756Q1440 680 1440 574V256Q1440 150 1365 75Q1289 0 1183 0H387Q281
0 206 75Q130 150 130 256V1159ZM389 622V306Q389 266 418 237Q446 208 487 208H1083Q1124 208 1152 237Q1181 266 1181 306V524Q1181 565 1152 593Q1124 622 1083 622H389Z" />
<glyph unicode="7" glyph-name="seven" horiz-adv-x="1463" d="M1302 1415Q1378 1415 1414 1354Q1433 1321 1433 1290Q1433 1254 1408 1219L501 -32L313 61L1139 1207H30V1415H1302Z" />
<glyph unicode="8" glyph-name="eight" horiz-adv-x="1637" d="M1251 1415Q1357 1415 1432 1340Q1507 1265 1507 1159V909Q1507 806 1436 732Q1507 657 1507 554V256Q1507 150 1432 75Q1357 0 1251 0H387Q281 0 206 75Q130 150 130 256V554Q130 657 202 732Q130
806 130 909V1159Q130 1265 206 1340Q281 1415 387 1415H1251ZM389 939Q389 898 418 870Q447 841 487 841H1151Q1191 841 1220 870Q1249 898 1249 939V1109Q1249 1149 1220 1178Q1191 1207 1151 1207H487Q447 1207 418 1178Q389 1149 389 1109V939ZM1249 534Q1249
575 1220 603Q1191 632 1151 632H487Q447 632 418 603Q389 575 389 534V306Q389 266 418 237Q447 208 487 208H1151Q1191 208 1220 237Q1249 266 1249 306V534Z" />
<glyph unicode="9" glyph-name="nine" horiz-adv-x="1570" d="M1183 1415Q1289 1415 1365 1340Q1440 1265 1440 1159V256Q1440 150 1365 75Q1289 0 1183 0H130V208H1083Q1124 208 1152 237Q1181 266 1181 306V584H387Q281 584 206 659Q130 734 130 841V1159Q130
1265 206 1340Q281 1415 387 1415H1183ZM1181 1109Q1181 1149 1152 1178Q1124 1207 1083 1207H487Q446 1207 418 1178Q389 1149 389 1109V891Q389 850 418 821Q446 793 487 793H1181V1109Z" />
<glyph unicode=":" glyph-name="colon" horiz-adv-x="520" d="M130 210H390V0H130V210ZM130 975H390V765H130V975Z" />
<glyph unicode=";" glyph-name="semicolon" horiz-adv-x="530" d="M270 0H130V210H400V-190H290Q290 -80 270 0ZM130 975H390V765H130V975Z" />
<glyph unicode="&lt;" glyph-name="less" horiz-adv-x="1089" d="M959 213L130 598V818L959 1203V978L319 708L959 438V213Z" />
<glyph unicode="=" glyph-name="equal" horiz-adv-x="1051" d="M130 589H921V430H130V589ZM130 989H921V830H130V989Z" />
<glyph unicode="&gt;" glyph-name="greater" horiz-adv-x="1089" d="M130 438L770 708L130 978V1203L959 818V598L130 213V438Z" />
<glyph unicode="?" glyph-name="question" horiz-adv-x="1624" d="M1238 1416Q1344 1416 1419 1341Q1494 1266 1494 1160V910Q1494 804 1419 729Q1344 653 1238 653H889Q844 653 812 622Q781 590 781 545V319H522V595Q522 706 600 784Q678 862 789 862H1138Q1178
862 1207 891Q1235 919 1235 960V1110Q1235 1150 1207 1179Q1178 1208 1138 1208H100V1416H1238ZM524 159H784V-1H524V159Z" />
<glyph unicode="@" glyph-name="at" horiz-adv-x="1825" d="M1573 1064Q1695 874 1695 672Q1695 561 1665 463T1587 301Q1489 182 1331 182Q1302 182 1275 188Q1138 214 1098 344Q1046 319 990 319H761Q656 319 581 394Q507 469 507 574V880Q518 1022 626 1096Q696
1142 781 1142H973Q1097 1142 1174 1063Q1241 1005 1245 875V428Q1245 355 1305 344Q1318 341 1331 341Q1366 341 1404 358Q1459 382 1480 425L1484 434L1503 482Q1536 578 1536 670Q1536 828 1440 978Q1354 1111 1215 1184Q1076 1257 909 1257Q652 1257 470 1096Q289
935 289 707Q289 480 470 319Q652 158 909 158Q999 158 1085 181L1162 201L1202 47L1125 27Q1020 0 909 0Q587 0 358 207Q130 415 130 707Q130 1000 358 1208Q587 1415 909 1415Q1118 1415 1292 1323Q1465 1232 1573 1064ZM1086 888Q1086 926 1061 952Q1031 983
973 983H781Q736 983 702 955Q669 928 665 890V574Q665 534 694 506Q722 478 761 478H990Q1030 478 1058 506Q1086 534 1086 574V888Z" />
<glyph unicode="A" glyph-name="A" horiz-adv-x="1865" d="M1476 710V924Q1476 1041 1393 1124Q1310 1207 1194 1207H671Q554 1207 471 1124Q389 1041 389 924V710H1476ZM389 502V0H130V974Q130 1157 259 1286Q388 1415 571 1415H1294Q1476 1415 1605 1286Q1735
1157 1735 974V0H1476V502H389Z" />
<glyph unicode="B" glyph-name="B" horiz-adv-x="1799" d="M1512 727Q1669 606 1669 409V401Q1669 235 1551 117Q1433 0 1267 0H130V1158Q130 1265 206 1340Q281 1415 387 1415H1267Q1451 1415 1563 1295Q1663 1187 1663 1033Q1663 837 1512 727ZM389 821H1167Q1282
821 1347 870Q1404 922 1404 1023Q1404 1095 1347 1156Q1282 1207 1167 1207H487Q447 1207 418 1178Q389 1149 389 1108V821ZM1410 439Q1410 519 1339 581Q1267 632 1167 632H389V208H1167Q1267 208 1339 260Q1410 321 1410 401V439Z" />
<glyph unicode="C" glyph-name="C" horiz-adv-x="1865" d="M130 974Q130 1157 259 1286Q389 1415 571 1415H1735V1207H671Q554 1207 472 1124Q389 1041 389 924V490Q389 374 472 291Q554 208 671 208H1735V0H571Q389 0 259 129Q130 258 130 440V974Z" />
<glyph unicode="D" glyph-name="D" horiz-adv-x="1865" d="M1294 1415Q1476 1415 1606 1286Q1735 1157 1735 974V440Q1735 258 1606 129Q1476 0 1294 0H130V1158Q130 1265 205 1340Q281 1415 387 1415H1294ZM1476 924Q1476 1041 1393 1124Q1311 1207 1194 1207H487Q446
1207 418 1178Q389 1149 389 1108V208H1194Q1311 208 1393 291Q1476 374 1476 490V924Z" />
<glyph unicode="E" glyph-name="E" horiz-adv-x="1603" d="M130 1158Q130 1265 205 1340Q280 1415 386 1415H1473V1207H486Q446 1207 417 1178Q388 1149 388 1108V811H1473V602H388V208H1473V0H130V1158Z" />
<glyph unicode="F" glyph-name="F" horiz-adv-x="1603" d="M130 1158Q130 1265 205 1340Q280 1415 386 1415H1473V1207H486Q446 1207 417 1178Q388 1149 388 1108V811H1473V602H388V0H130V1158Z" />
<glyph unicode="G" glyph-name="G" horiz-adv-x="1865" d="M844 861H1735V440Q1735 258 1606 129Q1477 0 1294 0H571Q389 0 260 129Q130 258 130 440V974Q130 1157 260 1286Q389 1415 571 1415H1548V1207H671Q555 1207 472 1124Q389 1041 389 924V490Q389 374
472 291Q555 208 671 208H1194Q1311 208 1394 291Q1476 374 1476 490V652H844V861Z" />
<glyph unicode="H" glyph-name="H" horiz-adv-x="1703" d="M1573 0H1315V612H389V0H130V1415H389V821H1315V1415H1573V0Z" />
<glyph unicode="I" glyph-name="I" horiz-adv-x="519" d="M130 1415H389V0H130V1415Z" />
<glyph unicode="J" glyph-name="J" horiz-adv-x="941" d="M552 1415H811V337Q811 197 712 99Q613 0 474 0H130V208H374Q448 208 500 261Q552 313 552 387V1415Z" />
<glyph unicode="K" glyph-name="K" horiz-adv-x="1708" d="M1319 1415H1578V989Q1578 833 1458 731Q1578 630 1578 473V0H1319V443Q1319 517 1267 570Q1214 622 1141 622H389V0H130V1415H389V831H1141Q1214 831 1267 883Q1319 935 1319 1009V1415Z" />
<glyph unicode="L" glyph-name="L" horiz-adv-x="1503" d="M389 307Q389 266 417 237Q446 208 487 208H1373V0H387Q280 0 205 75Q130 150 130 257V1415H389V307Z" />
<glyph unicode="M" glyph-name="M" horiz-adv-x="2457" d="M1990 1415Q2129 1415 2228 1284Q2327 1152 2327 967V0H2068V917Q2068 1033 2015 1120Q1961 1207 1890 1207H1591Q1492 1207 1420 1093Q1348 980 1348 825V0H1099V917Q1099 1033 1045 1120Q992 1207 920
1207H631Q533 1207 460 1093Q388 980 388 825V0H130V959Q157 1154 269 1284Q382 1415 531 1415H970Q1144 1415 1245 1226Q1366 1415 1551 1415H1990Z" />
<glyph unicode="N" glyph-name="N" horiz-adv-x="1865" d="M1294 1415Q1476 1415 1606 1286Q1735 1157 1735 974V1H1476V924Q1476 1041 1394 1124Q1311 1207 1194 1207H671Q554 1207 472 1124Q389 1041 389 924V0H130V974Q130 1157 260 1286Q389 1415 571 1415H1294Z" />
<glyph unicode="O" glyph-name="O" horiz-adv-x="1865" d="M1294 1415Q1476 1415 1606 1286Q1735 1157 1735 974V440Q1735 258 1606 129Q1476 0 1294 0H571Q389 0 259 129Q130 258 130 440V974Q130 1157 259 1286Q389 1415 571 1415H1294ZM1476 924Q1476 1041
1393 1124Q1311 1207 1194 1207H671Q554 1207 472 1124Q389 1041 389 924V490Q389 374 472 291Q554 208 671 208H1194Q1311 208 1393 291Q1476 374 1476 490V924Z" />
<glyph unicode="P" glyph-name="P" horiz-adv-x="1861" d="M1293 1415Q1499 1415 1622 1264Q1731 1098 1731 920Q1731 691 1620 565Q1497 425 1293 425H388V0H130V1158Q130 1265 205 1340Q280 1415 386 1415H1293ZM1402 700Q1472 760 1472 920Q1472 1078 1405
1137Q1329 1207 1193 1207H486Q446 1207 417 1178Q388 1149 388 1108V633H1193Q1326 633 1402 700Z" />
<glyph unicode="Q" glyph-name="Q" horiz-adv-x="1865" d="M1070 208H1194Q1311 208 1393 291Q1476 374 1476 490V924Q1476 1041 1393 1124Q1311 1207 1194 1207H671Q554 1207 472 1124Q389 1041 389 924V490Q389 374 472 291Q554 208 671 208H795V402H1070V208ZM795
0H571Q389 0 259 129Q130 258 130 440V974Q130 1157 259 1286Q389 1415 571 1415H1294Q1476 1415 1606 1286Q1735 1157 1735 974V440Q1735 258 1606 129Q1476 0 1294 0H1070V-262H795V0Z" />
<glyph unicode="R" glyph-name="R" horiz-adv-x="1865" d="M1550 705Q1735 572 1735 346V0H1476V296Q1476 413 1393 496Q1310 579 1194 579H389V0H130V1168Q130 1265 205 1340Q281 1415 387 1415H1294Q1498 1415 1620 1286Q1731 1180 1731 1022Q1731 822 1550
705ZM1194 787Q1327 787 1403 844Q1473 904 1473 1022Q1473 1109 1405 1157Q1329 1207 1194 1207H487Q446 1207 417 1178Q389 1149 389 1118V787H1194Z" />
<glyph unicode="S" glyph-name="S" horiz-adv-x="1704" d="M1308 810Q1418 810 1496 731Q1574 653 1574 543V266Q1574 156 1496 78Q1418 0 1308 0H130V208H1208Q1252 208 1284 240Q1316 272 1316 316V493Q1316 538 1284 569Q1252 601 1208 601H386Q280 601 205
676Q130 751 130 857V1157Q130 1263 205 1339Q280 1414 386 1414H1574V1207H486Q446 1207 417 1178Q388 1150 388 1109V907Q388 867 417 838Q446 810 486 810H1308Z" />
<glyph unicode="T" glyph-name="T" horiz-adv-x="1614" d="M130 1415H1484V1207H936V0H687V1207H130V1415Z" />
<glyph unicode="U" glyph-name="U" horiz-adv-x="1865" d="M1476 1416H1735V440Q1735 258 1606 129Q1476 0 1294 0H571Q389 0 260 129Q130 258 130 440V1416H389V490Q389 374 472 291Q554 208 671 208H1194Q1311 208 1393 291Q1476 374 1476 490V1416Z" />
<glyph unicode="V" glyph-name="V" horiz-adv-x="1872" d="M1862 1415L1405 451Q1276 208 1191 120Q1074 0 947 0H924Q797 0 677 119Q577 219 464 454L10 1415H293L713 525Q852 215 933 215T1159 526L1579 1415H1862Z" />
<glyph unicode="W" glyph-name="W" horiz-adv-x="2635" d="M2246 1415H2505V440Q2505 258 2376 129Q2247 0 2064 0H1679Q1449 0 1317 189Q1185 0 956 0H570Q388 0 259 129Q130 258 130 440V1415H388V490Q388 374 471 291Q554 208 670 208H906Q1023 208 1105 291Q1188
374 1188 490V1415H1447V490Q1447 374 1530 291Q1612 208 1729 208H1964Q2081 208 2164 291Q2246 374 2246 490V1415Z" />
<glyph unicode="X" glyph-name="X" horiz-adv-x="1879" d="M1490 1415H1749V1034Q1749 840 1552 725Q1749 603 1749 405V0H1490V375Q1490 477 1418 550Q1345 622 1243 622H636Q534 622 461 550Q389 477 389 375V0H130V405Q130 603 327 725Q130 840 130 1034V1415H389V1064Q389
972 454 906Q520 841 612 841H1267Q1359 841 1425 906Q1490 972 1490 1064V1415Z" />
<glyph unicode="Y" glyph-name="Y" horiz-adv-x="1865" d="M1476 1415H1735V440Q1735 258 1605 129Q1476 0 1294 0H130V208H1194Q1310 208 1393 291Q1476 374 1476 490V676Q1353 574 1194 574H571Q388 574 259 703Q130 832 130 1094V1415H389V1145Q389 949 471
866Q554 783 671 783H1194Q1310 783 1393 866Q1476 949 1476 1145V1415Z" />
<glyph unicode="Z" glyph-name="Z" horiz-adv-x="1742" d="M1355 1415Q1470 1415 1541 1353Q1612 1292 1612 1191V1121Q1612 985 1393 867L503 397Q389 336 389 274Q389 210 487 208H1575V0H387Q272 0 201 61Q130 122 130 221V294Q130 385 198 451Q237 489 329
537L1219 1008Q1353 1080 1353 1141Q1349 1208 1255 1207H167V1415H1355Z" />
<glyph unicode="[" glyph-name="bracketleft" horiz-adv-x="682" d="M130 1415H552V1207H388V-192H552V-400H130V1415Z" />
<glyph unicode="\" glyph-name="backslash" horiz-adv-x="824" d="M590 -43L10 1415H233L814 -43H590Z" />
<glyph unicode="]" glyph-name="bracketright" horiz-adv-x="682" d="M552 -400H130V-192H294V1207H130V1415H552V-400Z" />
<glyph unicode="^" glyph-name="asciicircum" horiz-adv-x="1369" d="M136 855L598 1415H770L1233 855H928L684 1170L441 855H136Z" />
<glyph unicode="_" glyph-name="underscore" horiz-adv-x="1451" d="M130 -1H1321V-210H130V-1Z" />
<glyph unicode="`" glyph-name="grave" horiz-adv-x="709" d="M302 1044L32 1335H381L561 1044H302Z" />
<glyph unicode="a" glyph-name="a" horiz-adv-x="1648" d="M537 168Q473 168 428 189Q359 222 359 289V303Q359 370 428 403Q472 424 537 424H1111Q1175 424 1220 403Q1289 370 1289 304Q1289 168 1111 168H537ZM1548 653Q1548 784 1448 879Q1348 975 1211 975H211V796H1111Q1184
796 1238 743Q1289 694 1289 633V555Q1211 593 1111 593H437Q286 593 193 513Q100 433 100 303V289Q100 159 193 79Q286 0 437 0H1211Q1364 0 1456 82Q1547 165 1548 303V653Z" />
<glyph unicode="b" glyph-name="b" horiz-adv-x="1708" d="M1241 975Q1380 975 1479 876Q1578 777 1578 638V337Q1578 197 1479 99Q1380 0 1241 0H532Q365 0 248 117Q130 235 130 401V1415H389V893Q496 975 632 975H1241ZM1319 618Q1319 692 1267 744Q1214 796
1141 796H632Q531 796 460 725Q389 654 389 554V421Q389 321 460 250Q531 178 632 178H1141Q1214 178 1267 231Q1319 283 1319 357V618Z" />
<glyph unicode="c" glyph-name="c" horiz-adv-x="1573" d="M130 574Q130 740 248 857Q366 975 532 975H1443V796H632Q531 796 460 725Q389 654 389 554V421Q389 321 460 250Q531 178 632 178H1443V0H532Q366 0 248 117Q130 235 130 401V574Z" />
<glyph unicode="d" glyph-name="d" horiz-adv-x="1709" d="M1579 401Q1579 235 1461 117Q1343 0 1177 0H468Q328 0 229 99Q130 197 130 337V638Q130 777 229 876Q328 975 468 975H1077Q1212 975 1320 893V1415H1579V401ZM1077 178Q1177 178 1249 250Q1320 321
1320 421V554Q1320 654 1249 725Q1177 796 1077 796H568Q494 796 442 744Q389 692 389 618V357Q389 283 442 231Q494 178 568 178H1077Z" />
<glyph unicode="e" glyph-name="e" horiz-adv-x="1708" d="M1176 975Q1342 975 1460 857Q1578 740 1578 574V422H388V357Q388 283 441 231Q493 178 567 178H1577V0H467Q327 0 228 99Q130 197 130 337V638Q130 777 228 876Q327 975 467 975H1176ZM1317 601Q1307
672 1238 734Q1169 796 1076 796H567Q493 796 441 744Q388 692 388 638V601H1317Z" />
<glyph unicode="f" glyph-name="f" horiz-adv-x="928" d="M130 1078Q130 1218 229 1316Q328 1415 467 1415H795V1237H567Q494 1237 441 1184Q389 1132 389 1058V973H798V794H389V0H130V1078Z" />
<glyph unicode="g" glyph-name="g" horiz-adv-x="1708" d="M1176 976Q1342 976 1460 858Q1578 741 1578 575V-102Q1578 -242 1479 -341Q1380 -439 1241 -439H209V-261H1141Q1214 -261 1267 -208Q1319 -156 1319 -82V83Q1211 1 1076 1H467Q328 1 229 100Q130 198
130 338V639Q130 778 229 877Q328 976 467 976H1176ZM1076 179Q1177 179 1248 251Q1319 322 1319 422V555Q1319 655 1248 726Q1177 797 1076 797H567Q493 797 441 745Q388 693 388 619V358Q388 284 441 232Q493 179 567 179H1076Z" />
<glyph unicode="h" glyph-name="h" horiz-adv-x="1708" d="M1241 975Q1380 975 1479 876Q1578 777 1578 638V0H1319V618Q1319 692 1267 744Q1215 796 1141 796H632Q531 796 460 725Q389 654 389 554V0H130V1415H389V893Q497 975 632 975H1241Z" />
<glyph unicode="i" glyph-name="i" horiz-adv-x="540" d="M140 975H399V0H140V975ZM140 1416H400V1156H140V1416Z" />
<glyph unicode="j" glyph-name="j" horiz-adv-x="562" d="M154 975H412V-103Q412 -243 313 -342Q215 -440 75 -440H-369V-262H-25Q49 -262 101 -209Q154 -157 154 -83V975ZM152 1415H412V1155H152V1415Z" />
<glyph unicode="k" glyph-name="k" horiz-adv-x="1708" d="M1461 384Q1578 283 1578 130V0H1320V110Q1320 184 1267 236Q1215 288 1141 288H389V0H130V1415H389V924Q471 975 567 975H1241Q1397 975 1491 871Q1576 776 1576 642Q1576 482 1461 384ZM1141 467Q1227
467 1275 522Q1317 570 1317 632Q1317 693 1275 742Q1227 796 1141 796H567Q494 796 441 744Q389 692 389 618V467H1141Z" />
<glyph unicode="l" glyph-name="l" horiz-adv-x="764" d="M409 357Q409 283 461 231Q514 178 588 178H754V0H488Q348 0 249 99Q150 197 150 337V1415H409V357Z" />
<glyph unicode="m" glyph-name="m" horiz-adv-x="2455" d="M1988 975Q2127 975 2226 877Q2325 778 2325 638V0H2066V618Q2066 692 2014 744Q1962 797 1888 797H1535Q1461 797 1409 745Q1357 692 1357 619V0H1098V618Q1098 692 1046 745Q994 797 920 797H631Q531
797 460 726Q389 655 389 554V0H130V594H131Q138 754 254 864Q371 975 531 975H970Q1126 975 1227 855Q1329 975 1485 975H1988Z" />
<glyph unicode="n" glyph-name="n" horiz-adv-x="1708" d="M1241 975Q1380 975 1479 876Q1578 777 1578 638V0H1319V618Q1319 692 1267 744Q1215 796 1141 796H632Q531 796 460 725Q389 654 389 554V0H130V598H131Q140 756 256 865Q372 975 532 975H1241Z" />
<glyph unicode="o" glyph-name="o" horiz-adv-x="1708" d="M1244 975Q1382 975 1480 877Q1578 779 1578 641V334Q1578 196 1480 98Q1382 0 1244 0H464Q326 0 228 98Q130 196 130 334V641Q130 779 228 877Q326 975 464 975H1244ZM1319 621Q1319 694 1268 745Q1216
796 1144 796H564Q491 796 440 745Q388 694 388 621V354Q388 281 440 230Q491 178 564 178H1144Q1216 178 1268 230Q1319 281 1319 354V621Z" />
<glyph unicode="p" glyph-name="p" horiz-adv-x="1708" d="M1241 974Q1380 974 1479 875Q1578 776 1578 637V336Q1578 196 1479 98Q1380 -1 1241 -1H632Q496 -1 389 81V-420H130V573Q130 739 248 856Q366 974 532 974H1241ZM1319 617Q1319 691 1267 743Q1215 795
1141 795H632Q531 795 460 724Q389 653 389 553V420Q389 320 460 249Q531 177 632 177H1141Q1215 177 1267 230Q1319 282 1319 356V617Z" />
<glyph unicode="q" glyph-name="q" horiz-adv-x="1708" d="M1176 974Q1342 974 1460 856Q1578 739 1578 573V-420H1319V81Q1212 -1 1076 -1H467Q328 -1 229 98Q130 196 130 336V637Q130 776 229 875Q328 974 467 974H1176ZM389 356Q389 282 441 230Q493 177 567
177H1076Q1177 177 1248 249Q1319 320 1319 420V553Q1319 653 1248 724Q1177 795 1076 795H567Q493 795 441 743Q389 691 389 617V356Z" />
<glyph unicode="r" glyph-name="r" horiz-adv-x="1303" d="M130 641Q130 779 228 877Q326 975 464 975H1293V796H564Q492 796 440 745Q389 694 389 621V0H130V641Z" />
<glyph unicode="s" glyph-name="s" horiz-adv-x="1705" d="M1243 579Q1398 579 1491 488Q1575 406 1575 289Q1575 173 1491 90Q1397 0 1243 0H130V178H1143Q1227 178 1274 219Q1316 255 1316 289Q1316 323 1274 359Q1227 400 1143 400H463Q308 400 215 487Q130
566 130 697Q130 809 215 888Q308 975 463 975H1440V796H563Q478 796 431 759Q389 726 389 687Q389 649 431 616Q478 579 563 579H1243Z" />
<glyph unicode="t" glyph-name="t" horiz-adv-x="936" d="M561 975H806V796H561V337Q561 263 613 211Q666 158 739 158H906V0H639Q500 0 401 99Q302 197 302 337V796H130V975H302V1415H561V975Z" />
<glyph unicode="u" glyph-name="u" horiz-adv-x="1708" d="M1320 975H1578V334Q1578 196 1480 98Q1382 0 1244 0H464Q326 0 228 98Q130 196 130 334V975H389V354Q389 281 440 230Q492 178 564 178H1144Q1217 178 1268 230Q1320 281 1320 354V975Z" />
<glyph unicode="v" glyph-name="v" horiz-adv-x="1569" d="M1559 975L1166 283Q1071 133 1006 78Q916 0 792 0H775Q650 0 558 77Q482 141 398 286L10 975H287L633 362Q782 64 935 364L1282 975H1559Z" />
<glyph unicode="w" glyph-name="w" horiz-adv-x="2095" d="M1707 975H1965V440Q1965 258 1836 129Q1707 0 1524 0H1409Q1180 0 1047 189Q915 0 686 0H570Q388 0 259 129Q130 258 130 440V975H388V460Q388 344 471 261Q554 178 670 178H686Q783 178 855 261Q918
344 918 460V975H1187V460Q1187 344 1240 261Q1312 178 1409 178H1424Q1541 178 1624 261Q1707 344 1707 460V975Z" />
<glyph unicode="x" glyph-name="x" horiz-adv-x="1680" d="M1291 975H1550V699Q1550 576 1458 493Q1550 408 1550 291V0H1291V281Q1291 338 1235 380Q1190 413 1159 413H521Q466 413 427 374Q389 336 389 281V0H130V291Q130 413 217 498Q130 580 130 699V975H389V709Q389
661 423 626Q457 592 506 592H1174Q1223 592 1257 626Q1291 661 1291 709V975Z" />
<glyph unicode="y" glyph-name="y" horiz-adv-x="1708" d="M1319 975H1578V-102Q1578 -242 1479 -341Q1380 -439 1241 -439H209V-261H1141Q1214 -261 1267 -208Q1319 -156 1319 -82V83Q1211 1 1076 1H467Q328 1 229 100Q130 198 130 338V975H388V358Q388 284 441
232Q493 179 567 179H1076Q1177 179 1248 251Q1319 322 1319 422V975Z" />
<glyph unicode="z" glyph-name="z" horiz-adv-x="1638" d="M1266 975Q1368 975 1438 919Q1508 863 1508 781V777Q1508 664 1294 583L366 178H1475V0H373Q271 0 200 56Q130 112 130 194V198Q130 273 197 323Q236 350 326 384L345 392L1293 796H164V975H1266Z" />
<glyph unicode="{" glyph-name="braceleft" horiz-adv-x="761" d="M100 577Q180 628 198 676Q206 699 206 756Q206 787 204 827Q199 1109 199 1160Q199 1266 274 1340Q349 1415 455 1415H631V1256H555Q515 1256 486 1228Q457 1200 457 1160Q457 1114 462 837Q465
787 465 748Q465 695 459 663Q441 576 269 507Q441 439 459 351Q465 320 465 267Q465 228 462 178Q457 -100 457 -146Q457 -185 486 -213Q515 -242 555 -242H631V-400H455Q349 -400 274 -326Q199 -251 199 -146Q199 -95 204 188Q206 228 206 258Q206 315 198 338Q180
386 100 437V577Z" />
<glyph unicode="|" glyph-name="bar" horiz-adv-x="518" d="M130 1415H388V-60H130V1415Z" />
<glyph unicode="}" glyph-name="braceright" horiz-adv-x="761" d="M661 437Q581 386 563 338Q555 315 555 258Q555 228 557 188Q562 -95 562 -146Q562 -251 487 -326Q412 -400 306 -400H130V-242H206Q246 -242 275 -213Q304 -185 304 -146Q304 -100 299 178Q296
228 296 267Q296 320 302 351Q320 439 392 507Q320 576 302 663Q296 695 296 748Q296 787 299 837Q304 1114 304 1160Q304 1200 275 1228Q246 1256 206 1256H130V1415H306Q412 1415 487 1340Q562 1266 562 1160Q562 1109 557 827Q555 787 555 756Q555 699 563 676Q581
628 661 577V437Z" />
<glyph unicode="~" glyph-name="asciitilde" horiz-adv-x="1222" d="M1122 669Q952 577 786 577H767Q660 580 494 638Q377 679 325 679H320Q241 677 154 601L100 552V788Q206 887 319 888H322Q411 888 559 836Q698 788 776 785H785Q910 785 1049 855L1122 897V669Z" />
</font>
</defs>
</svg>
